<svg id="Layer_1" data-name="Layer 1" xmlns="http://www.w3.org/2000/svg" viewBox="0 0 217.474 265.02"><defs><style>.cls-1{fill:#f60;}</style></defs><circle class="cls-1" cx="111.761" cy="106.225" r="50.39"/><path class="cls-1" d="M111.756,19.468a86.04,86.04,0,0,0-85.942,85.943l.019.764,9.228.05-.005-.192c-.006-.154-.011-.307-.011-.462A76.638,76.638,0,0,1,183.749,79.5l8.838-3.276A86.085,86.085,0,0,0,111.756,19.468Z"/><path class="cls-1" d="M111.683,35.2a70.456,70.456,0,0,0-70.376,70.376l.016.627,8.94.027A61.5,61.5,0,0,1,169.419,84.808l8.457-3.134A70.493,70.493,0,0,0,111.683,35.2Z"/><path class="cls-1" d="M111.761,3.58A101.74,101.74,0,0,0,10.02,105.32c0,.3.021.6.023.905h9.528l-.007-.278c-.007-.178-.012-.356-.012-.536A92.2,92.2,0,0,1,198.46,74.046l8.994-3.334A101.774,101.774,0,0,0,111.761,3.58Z"/><path class="cls-1" d="M111.761,167.625a61.5,61.5,0,0,1-61.5-61.5H10.043c0,.3-.023.6-.023.905A101.752,101.752,0,0,0,207.454,141.64l-38.035-14.1A61.515,61.515,0,0,1,111.761,167.625Z"/><path class="cls-1" d="M33.786,255.028l-5.17-5.114-.524.609a10.524,10.524,0,0,1-3.428,2.664,9.46,9.46,0,0,1-4.126.92,9.253,9.253,0,0,1-3.619-.7,9.113,9.113,0,0,1-2.876-1.9,8.674,8.674,0,0,1-1.908-2.846,9.131,9.131,0,0,1-.7-3.575,9.531,9.531,0,0,1,.679-3.626,8.853,8.853,0,0,1,1.872-2.869,8.7,8.7,0,0,1,2.846-1.908,9.549,9.549,0,0,1,7.781.285,10.361,10.361,0,0,1,3.505,2.843l.521.647,5.308-5.255-.431-.529a15.689,15.689,0,0,0-5.8-4.336,17.869,17.869,0,0,0-7.35-1.6,17.4,17.4,0,0,0-6.613,1.265A16.944,16.944,0,0,0,8.4,233.449a16.409,16.409,0,0,0-3.6,18.077,15.779,15.779,0,0,0,3.56,5.168,16.945,16.945,0,0,0,5.357,3.438,17.65,17.65,0,0,0,13.855-.314,16.2,16.2,0,0,0,5.772-4.261Z"/><path class="cls-1" d="M46.131,229.222l-13.06,31.743h8.154l3.111-7.95H55.8l3.067,7.95h8.411L54.4,229.222ZM53.318,246.5H46.867l3.259-8.322Z"/><polygon class="cls-1" points="85.688 244.567 77.852 229.222 68.607 229.222 68.607 260.965 75.897 260.965 75.897 241.03 85.6 259.675 95.35 241.056 95.35 260.965 102.77 260.965 102.77 229.222 93.524 229.222 85.688 244.567"/><path class="cls-1" d="M131.09,232.1a10.462,10.462,0,0,0-3.465-2.118,12.2,12.2,0,0,0-4.349-.762H107.361v31.743h7.765V249.558h8.15a12.365,12.365,0,0,0,4.323-.737,10.444,10.444,0,0,0,3.464-2.1,9.6,9.6,0,0,0,2.3-3.208,9.9,9.9,0,0,0,.821-4.041,10.343,10.343,0,0,0-.818-4.121A9.7,9.7,0,0,0,131.09,232.1Zm-15.964,4.021h7.459a3.85,3.85,0,0,1,2.751.943,3.164,3.164,0,0,1,.992,2.454,3.09,3.09,0,0,1-.986,2.426h0a3.9,3.9,0,0,1-2.756.928h-7.459Z"/><rect class="cls-1" x="137.431" y="229.222" width="7.765" height="31.742"/><path class="cls-1" d="M177.308,233.476h0a16.555,16.555,0,0,0-5.316-3.462,17.686,17.686,0,0,0-13.142,0,16.141,16.141,0,0,0-8.871,8.667,16.3,16.3,0,0,0,0,12.827,16.141,16.141,0,0,0,8.871,8.667,17.686,17.686,0,0,0,13.142,0,16.143,16.143,0,0,0,8.87-8.667,16.286,16.286,0,0,0,0-12.827A16.439,16.439,0,0,0,177.308,233.476ZM161.916,253.5a8.531,8.531,0,0,1-2.782-1.907,8.932,8.932,0,0,1-1.853-2.893,9.961,9.961,0,0,1,0-7.232,9.025,9.025,0,0,1,1.854-2.874,8.583,8.583,0,0,1,2.783-1.906,8.712,8.712,0,0,1,3.482-.694,8.894,8.894,0,0,1,3.507.695,8.562,8.562,0,0,1,2.8,1.905,9.057,9.057,0,0,1,1.853,2.874,9.964,9.964,0,0,1,0,7.233,8.975,8.975,0,0,1-1.852,2.892,8.5,8.5,0,0,1-2.8,1.906A9.16,9.16,0,0,1,161.916,253.5Z"/><polygon class="cls-1" points="206.599 229.222 206.599 247.337 192.683 229.222 185.601 229.222 185.601 260.965 193.02 260.965 193.02 242.215 207.323 260.965 213.975 260.965 213.975 229.222 206.599 229.222"/></svg>