<svg id="Layer_1" data-name="Layer 1" xmlns="http://www.w3.org/2000/svg" viewBox="0 0 200.765 216.042"><defs><style>.cls-1{fill:#f60;}</style></defs><circle class="cls-1" cx="103.406" cy="108.07" r="50.39"/><path class="cls-1" d="M103.4,21.313a86.041,86.041,0,0,0-85.942,85.943l.02.764,9.227.05,0-.192c-.006-.154-.01-.307-.01-.462a76.637,76.637,0,0,1,148.7-26.073l8.839-3.276A86.087,86.087,0,0,0,103.4,21.313Z"/><path class="cls-1" d="M103.329,37.04a70.457,70.457,0,0,0-70.377,70.376l.017.627,8.94.027A61.5,61.5,0,0,1,161.065,86.653l8.457-3.134A70.494,70.494,0,0,0,103.329,37.04Z"/><path class="cls-1" d="M103.406,5.425A101.739,101.739,0,0,0,1.666,107.165c0,.3.02.6.023.9h9.528l-.008-.278c-.006-.178-.012-.356-.012-.536A92.2,92.2,0,0,1,190.105,75.891l8.994-3.334A101.774,101.774,0,0,0,103.406,5.425Z"/><path class="cls-1" d="M103.406,169.47a61.5,61.5,0,0,1-61.5-61.5H1.689c0,.3-.023.6-.023.905A101.752,101.752,0,0,0,199.1,143.485l-38.034-14.1A61.517,61.517,0,0,1,103.406,169.47Z"/></svg>